# xmcd
#
# Track frame offsets: 
#        183
#        11015
#        25425
#        38773
#        50668
#        60465
#        69905
#        82493
#        94523
#        103870
#        120908
#        137175
#        146610
#        159963
#        172813
#        184015
#        194238
#        207370
#        220510
#        233033
#        250283
#
# Disc length: 3556 seconds
#
# Revision: 0
# Processed by: cddbd v1.4PL0 Copyright (c) Steve Scherf et al.
# Submitted via: ExactAudioCopy v0.90b4
#
DISCID=280de215
DTITLE=Various Artist - Keb Darges's Legendary Deep Funk
DYEAR=1997
DGENRE=Funk
TTITLE0=Zambezi - the fun company
TTITLE1=Dap Walk - ernie and the topnotes inc
TTITLE2=I Who Have Nothing - ray frazier and the shades of madness
TTITLE3=Gimme Some Skin - frank penn
TTITLE4=Kick The Habit - prophet soul
TTITLE5=Too Hot To Hold - the ufos
TTITLE6=Sagittarius Black - timothy mcnealy
TTITLE7=Quit Jive'in - pearly queen
TTITLE8=Put Your Own Words To It - billy
TTITLE9=Cross Bronx Expressway - cross bronx expressway
TTITLE10=Grease Wheels - smokin' shades of black
TTITLE11=The (Rockin') Courtroom - judge suds and the soul detergents
TTITLE12=How About It - big bo thomas and the arrows
TTITLE13=Who Dun It - the original orchestra
TTITLE14=Soul Power - lil ray and the fantastic four
TTITLE15=Ou-wee Man - dave serrano
TTITLE16=Going Down For The Last Time - ronnie keaton
TTITLE17=The First Thing I Do In The Morning - joyce williams
TTITLE18=Can't Fight The Feeling - norwich street extension
TTITLE19=I Wanna Be Loved By You - family of eve
TTITLE20=Please Be Thruthful - family of eve
EXTD=
EXTT0=
EXTT1=
EXTT2=
EXTT3=
EXTT4=
EXTT5=
EXTT6=
EXTT7=
EXTT8=
EXTT9=
EXTT10=
EXTT11=
EXTT12=
EXTT13=
EXTT14=
EXTT15=
EXTT16=
EXTT17=
EXTT18=
EXTT19=
EXTT20=
PLAYORDER=
